<svg width="25" height="17" viewBox="0 0 25 17" fill="none" xmlns="http://www.w3.org/2000/svg">
<path d="M24.5846 2.45965L22.8809 0.755899L19.4371 4.63465C16.948 1.83132 13.5042 0.139648 9.61338 0.139648C6.1213 0.139648 2.91922 1.54132 0.417969 3.76465L2.1338 5.48048C4.18797 3.68007 6.78588 2.55632 9.61338 2.55632C12.9242 2.55632 15.7638 4.07881 17.7938 6.47131L14.3138 10.3863L9.48047 5.55298L0.417969 14.6276L2.23047 16.4401L9.48047 9.17798L14.3138 14.0113L19.2076 8.5134C20.1138 10.1446 20.718 12.0176 20.9475 14.0113H23.3763C23.1105 11.2321 22.2284 8.70673 20.9113 6.59215L24.5846 2.45965Z" fill="#002547"/>
</svg>
