<svg width="25" height="25" viewBox="0 0 25 25" fill="none" xmlns="http://www.w3.org/2000/svg">
<path d="M24.7901 9.17904C24.7901 4.50279 21.008 0.720703 16.3317 0.720703C11.6555 0.720703 7.87339 4.50279 7.87339 9.17904C7.87339 13.372 10.9184 16.8399 14.918 17.5045V22.2653H5.2513V18.6403H6.45964V13.807C6.45964 13.1424 5.91589 12.5986 5.2513 12.5986H1.6263C0.961719 12.5986 0.417969 13.1424 0.417969 13.807V18.6403H1.6263V24.682H20.9596V22.2653H17.3346V17.577C21.5276 17.0815 24.7901 13.517 24.7901 9.17904ZM3.4388 11.3903C4.44172 11.3903 5.2513 10.5807 5.2513 9.57779C5.2513 8.57487 4.44172 7.76529 3.4388 7.76529C2.43589 7.76529 1.6263 8.57487 1.6263 9.57779C1.6263 10.5807 2.43589 11.3903 3.4388 11.3903Z" fill="#002547"/>
</svg>
