<svg width="30" height="17" viewBox="0 0 30 17" fill="none" xmlns="http://www.w3.org/2000/svg">
<path d="M30 2.76432C30 4.23099 28.7727 5.43099 27.2727 5.43099C27.0273 5.43099 26.7955 5.40432 26.5773 5.33766L21.7227 10.071C21.7909 10.2843 21.8182 10.5243 21.8182 10.7643C21.8182 12.231 20.5909 13.431 19.0909 13.431C17.5909 13.431 16.3636 12.231 16.3636 10.7643C16.3636 10.5243 16.3909 10.2843 16.4591 10.071L12.9818 6.67099C12.7636 6.73766 12.5182 6.76432 12.2727 6.76432C12.0273 6.76432 11.7818 6.73766 11.5636 6.67099L5.35909 12.751C5.42727 12.9643 5.45455 13.191 5.45455 13.431C5.45455 14.8977 4.22727 16.0977 2.72727 16.0977C1.22727 16.0977 0 14.8977 0 13.431C0 11.9643 1.22727 10.7643 2.72727 10.7643C2.97273 10.7643 3.20455 10.791 3.42273 10.8577L9.64091 4.79099C9.57273 4.57766 9.54545 4.33766 9.54545 4.09766C9.54545 2.63099 10.7727 1.43099 12.2727 1.43099C13.7727 1.43099 15 2.63099 15 4.09766C15 4.33766 14.9727 4.57766 14.9045 4.79099L18.3818 8.19099C18.6 8.12432 18.8455 8.09766 19.0909 8.09766C19.3364 8.09766 19.5818 8.12432 19.8 8.19099L24.6409 3.44432C24.5727 3.23099 24.5455 3.00432 24.5455 2.76432C24.5455 1.29766 25.7727 0.0976562 27.2727 0.0976562C28.7727 0.0976562 30 1.29766 30 2.76432Z" fill="#002547"/>
</svg>
