<svg width="762" height="669" viewBox="0 0 762 669" fill="none" xmlns="http://www.w3.org/2000/svg">
<circle cx="408" cy="154.259" r="134" fill="#E7F3FF"/>
<path d="M388 107.506C413.005 92.5026 432.384 118.758 449.262 107.506C466.141 96.2547 479.894 123.135 500.523 107.506C521.152 91.8777 529.279 118.758 556.159 107.506" stroke="#A7C2DE" stroke-width="2" stroke-linecap="round" stroke-linejoin="round"/>
<path d="M388 94.4614C413.005 79.4577 432.384 105.713 449.262 94.4614C466.141 83.2097 479.894 110.09 500.523 94.4614C521.152 78.8327 529.279 105.713 556.159 94.4614" stroke="#A7C2DE" stroke-width="2" stroke-linecap="round" stroke-linejoin="round"/>
<path d="M388 81.4165C413.005 66.4128 432.384 92.6681 449.262 81.4165C466.141 70.1648 479.894 97.0451 500.523 81.4165C521.152 65.7878 529.279 92.6681 556.159 81.4165" stroke="#A7C2DE" stroke-width="2" stroke-linecap="round" stroke-linejoin="round"/>
<path d="M388 68.3715C413.005 53.3678 432.384 79.6232 449.262 68.3715C466.141 57.1199 479.894 84.0002 500.523 68.3715C521.152 52.7429 529.279 79.6231 556.159 68.3715" stroke="#A7C2DE" stroke-width="2" stroke-linecap="round" stroke-linejoin="round"/>
<path d="M388 55.3266C413.005 40.3229 432.384 66.5783 449.262 55.3266C466.141 44.075 479.894 70.9553 500.523 55.3266C521.152 39.698 529.279 66.5782 556.159 55.3266" stroke="#A7C2DE" stroke-width="2" stroke-linecap="round" stroke-linejoin="round"/>
<path d="M388 42.2817C413.005 27.278 432.384 53.5333 449.262 42.2817C466.141 31.0301 479.894 57.9104 500.523 42.2817C521.152 26.653 529.279 53.5333 556.159 42.2817" stroke="#A7C2DE" stroke-width="2" stroke-linecap="round" stroke-linejoin="round"/>
<g filter="url(#filter0_f_127_177)">
<rect x="114" y="205.259" width="76" height="302" rx="20" fill="#DEDEDE"/>
</g>
<g filter="url(#filter1_f_127_177)">
<rect x="183" y="64.2593" width="315" height="410" rx="20" fill="#C0C0C0" fill-opacity="0.7"/>
</g>
<rect x="136" y="67.2593" width="352" height="417" rx="20" fill="white"/>
<rect x="147" y="82.2593" width="320" height="75" rx="11" fill="#01040C"/>
<rect x="147" y="167.259" width="319" height="133" rx="11" fill="#F7F9FF"/>
<rect x="147.5" y="167.759" width="318" height="132" rx="10.5" stroke="#002547" stroke-opacity="0.13"/>
<text fill="#E7E7E7" xml:space="preserve" style="white-space: pre" font-family="Roboto" font-size="14" font-weight="500" letter-spacing="0.1em"><tspan x="183" y="118.044">LESS</tspan></text>
<text opacity="0.6" fill="#E7E7E7" xml:space="preserve" style="white-space: pre" font-family="Roboto" font-size="12" letter-spacing="0em"><tspan x="382" y="123.361">Invoice  $20</tspan></text>
<text opacity="0.6" fill="#01070D" xml:space="preserve" style="white-space: pre" font-family="Roboto" font-size="12" letter-spacing="0em"><tspan x="384" y="210.361">amount due</tspan></text>
<text fill="#01070D" xml:space="preserve" style="white-space: pre" font-family="Roboto" font-size="16" font-weight="500" letter-spacing="0em"><tspan x="399" y="233.228">$3,218</tspan></text>
<text fill="#006ED5" xml:space="preserve" style="white-space: pre" font-family="Roboto" font-size="10" letter-spacing="0em"><tspan x="412" y="251.677">pending</tspan></text>
<text opacity="0.4" fill="#01070D" xml:space="preserve" style="white-space: pre" font-family="Roboto" font-size="12" letter-spacing="0em"><tspan x="165" y="193.361">Invoice  $20</tspan></text>
<text opacity="0.8" fill="#01070D" xml:space="preserve" style="white-space: pre" font-family="Roboto" font-size="16" font-weight="500" letter-spacing="0em"><tspan x="165" y="216.228">Mark Johnson</tspan></text>
<text opacity="0.4" fill="#01070D" xml:space="preserve" style="white-space: pre" font-family="Roboto" font-size="12" letter-spacing="0em"><tspan x="165" y="236.361">18 Cartson Street, San</tspan></text>
<text opacity="0.4" fill="#01070D" xml:space="preserve" style="white-space: pre" font-family="Roboto" font-size="12" letter-spacing="0em"><tspan x="165" y="252.361">Francisco Califomia,</tspan></text>
<text opacity="0.4" fill="#01070D" xml:space="preserve" style="white-space: pre" font-family="Roboto" font-size="12" letter-spacing="0em"><tspan x="165" y="268.361">United States</tspan></text>
<text opacity="0.4" fill="black" xml:space="preserve" style="white-space: pre" font-family="Roboto" font-size="12" letter-spacing="0em"><tspan x="152" y="322.361">Titel</tspan></text>
<text opacity="0.6" fill="black" xml:space="preserve" style="white-space: pre" font-family="Roboto" font-size="12" font-weight="500" letter-spacing="0em"><tspan x="436" y="322.361">Total</tspan></text>
<text opacity="0.6" fill="black" xml:space="preserve" style="white-space: pre" font-family="Roboto" font-size="12" font-weight="500" letter-spacing="0em"><tspan x="152" y="343.361">Cleanup and Catchup 2020</tspan></text>
<text fill="#01070D" fill-opacity="0.3" xml:space="preserve" style="white-space: pre" font-family="Roboto" font-size="12" letter-spacing="0em"><tspan x="425" y="341.361">$</tspan></text>
<text fill="#01070D" fill-opacity="0.7" xml:space="preserve" style="white-space: pre" font-family="Roboto" font-size="12" font-weight="500" letter-spacing="0em"><tspan x="431.738" y="341.361">1.200</tspan></text>
<text opacity="0.4" fill="black" xml:space="preserve" style="white-space: pre" font-family="Roboto" font-size="12" font-weight="500" letter-spacing="0em"><tspan x="152" y="362.361">Extra services</tspan></text>
<text fill="black" fill-opacity="0.3" xml:space="preserve" style="white-space: pre" font-family="Roboto" font-size="12" letter-spacing="0em"><tspan x="425" y="360.361">$</tspan></text>
<text fill="black" fill-opacity="0.7" xml:space="preserve" style="white-space: pre" font-family="Roboto" font-size="12" font-weight="500" letter-spacing="0em"><tspan x="431.738" y="360.361">2.018</tspan></text>
<text opacity="0.6" fill="#01070D" xml:space="preserve" style="white-space: pre" font-family="Roboto" font-size="12" font-weight="500" letter-spacing="0em"><tspan x="152" y="408.361">NOTES</tspan></text>
<text opacity="0.7" fill="#01070D" xml:space="preserve" style="white-space: pre" font-family="Roboto" font-size="12" font-weight="500" letter-spacing="0em"><tspan x="377" y="411.361">TOTAL AMOUNT</tspan></text>
<text opacity="0.7" fill="#01070D" xml:space="preserve" style="white-space: pre" font-family="Roboto" font-size="12" font-weight="500" letter-spacing="0em"><tspan x="411" y="430.361">$50</tspan></text>
<text opacity="0.4" fill="#01070D" xml:space="preserve" style="white-space: pre" font-family="Roboto" font-size="12" font-weight="500" letter-spacing="0em"><tspan x="152" y="427.361">Thank you for your</tspan></text>
<text opacity="0.4" fill="#01070D" xml:space="preserve" style="white-space: pre" font-family="Roboto" font-size="12" font-weight="500" letter-spacing="0em"><tspan x="152" y="443.361">business</tspan></text>
<text opacity="0.6" fill="white" xml:space="preserve" style="white-space: pre" font-family="Roboto" font-size="7" letter-spacing="0em"><tspan x="183" y="129.652">Thank You For Your</tspan></text>
<line opacity="0.2" x1="152" y1="376.759" x2="463" y2="376.759" stroke="black"/>
<path opacity="0.43" d="M494.851 204.259C511.337 204.953 529.442 233.74 527.97 249.693M527.97 249.693L532.739 243.388M527.97 249.693L522.664 244.965" stroke="url(#paint0_linear_127_177)" stroke-width="2" stroke-linecap="round" stroke-linejoin="round"/>
<g filter="url(#filter2_f_127_177)">
<rect x="432" y="254.259" width="256" height="340" rx="10" fill="#DEDEDE" fill-opacity="0.61"/>
</g>
<rect x="422" y="264.259" width="256" height="313" rx="10" fill="white"/>
<text opacity="0.7" fill="#01070D" xml:space="preserve" style="white-space: pre" font-family="Roboto" font-size="14" font-weight="bold" letter-spacing="0em"><tspan x="501" y="337.044">Proposal Template</tspan></text>
<rect x="453" y="397.259" width="195" height="6" rx="3" fill="#EBF1F7"/>
<g opacity="0.7">
<path d="M453 323.259H453.015" stroke="#1D92FF" stroke-width="4" stroke-linecap="round" stroke-linejoin="round"/>
<path d="M453 332.259H453.015" stroke="#1D92FF" stroke-width="4" stroke-linecap="round" stroke-linejoin="round"/>
<path d="M453 341.259H453.015" stroke="#1D92FF" stroke-width="4" stroke-linecap="round" stroke-linejoin="round"/>
</g>
<rect x="453" y="381.259" width="75" height="6" rx="3" fill="#C4C4C4"/>
<path d="M467.125 473.94C467.125 471.455 469.14 469.44 471.625 469.44H472.405C474.89 469.44 476.905 471.455 476.905 473.94V518.977H467.125V473.94Z" fill="#1D92FF"/>
<path d="M495.379 477.637C495.379 475.151 497.394 473.137 499.879 473.137H500.659C503.144 473.137 505.159 475.151 505.159 477.637V518.977H495.379V477.637Z" fill="#1D92FF"/>
<path d="M523.631 490.206C523.631 487.721 525.646 485.706 528.131 485.706H528.911C531.396 485.706 533.411 487.721 533.411 490.206V518.977H523.631V490.206Z" fill="#1D92FF"/>
<path d="M551.883 457.674C551.883 455.189 553.898 453.174 556.383 453.174H557.163C559.648 453.174 561.663 455.189 561.663 457.674V518.977H551.883V457.674Z" fill="#1D92FF"/>
<path d="M580.137 470.243C580.137 467.758 582.151 465.743 584.637 465.743H585.416C587.902 465.743 589.916 467.758 589.916 470.243V518.977H580.137V470.243Z" fill="#1D92FF"/>
<path d="M608.389 490.206C608.389 487.721 610.403 485.706 612.889 485.706H613.668C616.154 485.706 618.168 487.721 618.168 490.206V518.977H608.389V490.206Z" fill="#1D92FF"/>
<path opacity="0.15" d="M453 485.03C453 482.545 455.015 480.53 457.5 480.53H458.28C460.765 480.53 462.78 482.545 462.78 485.03V518.977H453V485.03Z" fill="#1D92FF"/>
<path opacity="0.15" d="M481.252 454.717C481.252 452.232 483.267 450.217 485.752 450.217H486.532C489.017 450.217 491.032 452.232 491.032 454.717V518.977H481.252V454.717Z" fill="#1D92FF"/>
<path opacity="0.15" d="M509.506 451.759C509.506 449.274 511.521 447.259 514.006 447.259H514.786C517.271 447.259 519.286 449.274 519.286 451.759V518.977H509.506V451.759Z" fill="#1D92FF"/>
<path opacity="0.15" d="M537.758 477.637C537.758 475.151 539.773 473.137 542.258 473.137H543.038C545.523 473.137 547.538 475.151 547.538 477.637V518.977H537.758V477.637Z" fill="#1D92FF"/>
<path opacity="0.15" d="M566.01 500.557C566.01 498.072 568.024 496.057 570.51 496.057H571.289C573.775 496.057 575.789 498.072 575.789 500.557V518.977H566.01V500.557Z" fill="#1D92FF"/>
<path opacity="0.15" d="M594.264 454.717C594.264 452.232 596.278 450.217 598.764 450.217H599.543C602.029 450.217 604.043 452.232 604.043 454.717V518.977H594.264V454.717Z" fill="#1D92FF"/>
<rect x="464" y="529.259" width="40" height="6" rx="2.5" fill="#EFEEEE"/>
<circle cx="456" cy="532.259" r="3" fill="#DDEFFF"/>
<rect x="530" y="529.259" width="39" height="6" rx="2.5" fill="#EFEEEE"/>
<circle cx="522" cy="532.259" r="3" fill="#1D92FF"/>
<g opacity="0.5">
<text fill="#01070D" xml:space="preserve" style="white-space: pre" font-family="Poppins" font-size="10" font-weight="500" letter-spacing="0em"><tspan x="453" y="556.972">67</tspan></text>
<text fill="#01070D" xml:space="preserve" style="white-space: pre" font-family="Poppins" font-size="10" font-weight="500" letter-spacing="0em"><tspan x="480.166" y="556.972">87</tspan></text>
<text fill="#01070D" xml:space="preserve" style="white-space: pre" font-family="Poppins" font-size="10" font-weight="500" letter-spacing="0em"><tspan x="507.332" y="556.972">27</tspan></text>
<text fill="#01070D" xml:space="preserve" style="white-space: pre" font-family="Poppins" font-size="10" font-weight="500" letter-spacing="0em"><tspan x="534.498" y="556.972">45</tspan></text>
<text fill="#01070D" xml:space="preserve" style="white-space: pre" font-family="Poppins" font-size="10" font-weight="500" letter-spacing="0em"><tspan x="562.75" y="556.972">40</tspan></text>
<text fill="#01070D" xml:space="preserve" style="white-space: pre" font-family="Poppins" font-size="10" font-weight="500" letter-spacing="0em"><tspan x="591.004" y="556.972">50</tspan></text>
<text fill="#01070D" xml:space="preserve" style="white-space: pre" font-family="Poppins" font-size="10" font-weight="500" letter-spacing="0em"><tspan x="619.256" y="556.972">60</tspan></text>
</g>
<path d="M460.5 323.259H480" stroke="#1D92FF" stroke-width="4" stroke-linecap="round" stroke-linejoin="round"/>
<path d="M460.5 332.259H480" stroke="#1D92FF" stroke-width="4" stroke-linecap="round" stroke-linejoin="round"/>
<path d="M460.5 341.259H480" stroke="#1D92FF" stroke-width="4" stroke-linecap="round" stroke-linejoin="round"/>
<defs>
<filter id="filter0_f_127_177" x="0" y="91.2593" width="304" height="530" filterUnits="userSpaceOnUse" color-interpolation-filters="sRGB">
<feFlood flood-opacity="0" result="BackgroundImageFix"/>
<feBlend mode="normal" in="SourceGraphic" in2="BackgroundImageFix" result="shape"/>
<feGaussianBlur stdDeviation="57" result="effect1_foregroundBlur_127_177"/>
</filter>
<filter id="filter1_f_127_177" x="119" y="0.259277" width="443" height="538" filterUnits="userSpaceOnUse" color-interpolation-filters="sRGB">
<feFlood flood-opacity="0" result="BackgroundImageFix"/>
<feBlend mode="normal" in="SourceGraphic" in2="BackgroundImageFix" result="shape"/>
<feGaussianBlur stdDeviation="32" result="effect1_foregroundBlur_127_177"/>
</filter>
<filter id="filter2_f_127_177" x="358" y="180.259" width="404" height="488" filterUnits="userSpaceOnUse" color-interpolation-filters="sRGB">
<feFlood flood-opacity="0" result="BackgroundImageFix"/>
<feBlend mode="normal" in="SourceGraphic" in2="BackgroundImageFix" result="shape"/>
<feGaussianBlur stdDeviation="37" result="effect1_foregroundBlur_127_177"/>
</filter>
<linearGradient id="paint0_linear_127_177" x1="526.702" y1="244.134" x2="502.718" y2="207.593" gradientUnits="userSpaceOnUse">
<stop stop-color="#7D848B"/>
<stop offset="1" stop-color="#01070D" stop-opacity="0"/>
</linearGradient>
</defs>
</svg>
