<svg width="32" height="33" viewBox="0 0 32 33" fill="none" xmlns="http://www.w3.org/2000/svg">
<circle opacity="0.05" cx="16" cy="16.2593" r="16" fill="#1D92FF"/>
<path d="M13.8903 14.6121V11.8864C13.8903 10.8807 14.6175 10.0645 15.5135 10.0645C16.4095 10.0645 17.1367 10.8807 17.1367 11.8864V14.6121C17.9223 14.0218 18.4352 13.0233 18.4352 11.8864C18.4352 10.0718 17.1302 8.60693 15.5135 8.60693C13.8968 8.60693 12.5917 10.0718 12.5917 11.8864C12.5917 13.0233 13.1047 14.0218 13.8903 14.6121ZM20.2792 17.9863L17.3314 16.3393C17.2211 16.2883 17.1042 16.2591 16.9808 16.2591H16.4874V11.8864C16.4874 11.2816 16.0524 10.7933 15.5135 10.7933C14.9746 10.7933 14.5396 11.2816 14.5396 11.8864V19.7135L12.3125 19.1888C12.2606 19.1815 12.2151 19.1669 12.1567 19.1669C11.9554 19.1669 11.7736 19.2617 11.6438 19.4074L11.1309 19.9905L14.3383 23.5906C14.5136 23.7874 14.7603 23.9113 15.0265 23.9113H19.4351C19.922 23.9113 20.2986 23.5105 20.37 22.9784L20.857 19.1378C20.8635 19.0868 20.87 19.0358 20.87 18.992C20.87 18.5402 20.6233 18.1466 20.2792 17.9863Z" fill="#1D92FF"/>
</svg>
