<svg width="109" height="42" viewBox="0 0 109 42" fill="none" xmlns="http://www.w3.org/2000/svg">
<path fill-rule="evenodd" clip-rule="evenodd" d="M41.9998 21.0966L42 21C42 9.40202 32.598 0 21 0C10.1757 0 1.26409 8.18954 0.123364 18.7105L11.79 24.4142C12.3617 23.6184 13.2953 23.1 14.35 23.1C15.2427 23.1 16.0487 23.4714 16.6219 24.068L25.9002 16.4134C25.9198 14.6906 27.3225 13.3 29.05 13.3C30.6572 13.3 31.9833 14.5037 32.1759 16.0587L41.9998 21.0966ZM17.4857 25.9482L26.5994 18.4294C27.1769 19.1434 28.0601 19.6 29.05 19.6C30.1912 19.6 31.1907 18.9931 31.7433 18.0845L41.8775 23.2815C40.7404 33.8063 31.8271 42 21 42C9.40202 42 0 32.598 0 21C0 20.9588 0.000118391 20.9177 0.000354851 20.8766L11.2016 26.3528C11.2559 28.0449 12.6447 29.4 14.35 29.4C16.0897 29.4 17.5 27.9897 17.5 26.25C17.5 26.1482 17.4952 26.0475 17.4857 25.9482Z" fill="white"/>
<path d="M65.2296 21.1236C66.0949 21.2849 66.8062 21.7176 67.3636 22.4216C67.9209 23.1256 68.1996 23.9322 68.1996 24.8416C68.1996 25.6629 67.9942 26.3889 67.5836 27.0196C67.1876 27.6356 66.6082 28.1196 65.8456 28.4716C65.0829 28.8236 64.1809 28.9996 63.1396 28.9996H56.5176V13.6436H62.8536C63.8949 13.6436 64.7896 13.8122 65.5376 14.1496C66.3002 14.4869 66.8722 14.9562 67.2536 15.5576C67.6496 16.1589 67.8476 16.8409 67.8476 17.6036C67.8476 18.4982 67.6056 19.2462 67.1216 19.8476C66.6522 20.4489 66.0216 20.8742 65.2296 21.1236ZM59.5976 19.9796H62.4136C63.1469 19.9796 63.7116 19.8182 64.1076 19.4956C64.5036 19.1582 64.7016 18.6816 64.7016 18.0656C64.7016 17.4496 64.5036 16.9729 64.1076 16.6356C63.7116 16.2982 63.1469 16.1296 62.4136 16.1296H59.5976V19.9796ZM62.6996 26.4916C63.4476 26.4916 64.0269 26.3156 64.4376 25.9636C64.8629 25.6116 65.0756 25.1129 65.0756 24.4676C65.0756 23.8076 64.8556 23.2942 64.4156 22.9276C63.9756 22.5462 63.3816 22.3556 62.6336 22.3556H59.5976V26.4916H62.6996Z" fill="white"/>
<path d="M69.8623 22.8616C69.8623 21.6296 70.1043 20.5369 70.5883 19.5836C71.087 18.6302 71.7543 17.8969 72.5903 17.3836C73.441 16.8702 74.387 16.6136 75.4283 16.6136C76.3376 16.6136 77.1296 16.7969 77.8043 17.1636C78.4936 17.5302 79.0436 17.9922 79.4543 18.5496V16.8116H82.5563V28.9996H79.4543V27.2176C79.0583 27.7896 78.5083 28.2662 77.8043 28.6476C77.115 29.0142 76.3156 29.1976 75.4063 29.1976C74.3796 29.1976 73.441 28.9336 72.5903 28.4056C71.7543 27.8776 71.087 27.1369 70.5883 26.1836C70.1043 25.2156 69.8623 24.1082 69.8623 22.8616ZM79.4543 22.9056C79.4543 22.1576 79.3076 21.5196 79.0143 20.9916C78.721 20.4489 78.325 20.0382 77.8263 19.7596C77.3276 19.4662 76.7923 19.3196 76.2203 19.3196C75.6483 19.3196 75.1203 19.4589 74.6363 19.7376C74.1523 20.0162 73.7563 20.4269 73.4483 20.9696C73.155 21.4976 73.0083 22.1282 73.0083 22.8616C73.0083 23.5949 73.155 24.2402 73.4483 24.7976C73.7563 25.3402 74.1523 25.7582 74.6363 26.0516C75.135 26.3449 75.663 26.4916 76.2203 26.4916C76.7923 26.4916 77.3276 26.3522 77.8263 26.0736C78.325 25.7802 78.721 25.3696 79.0143 24.8416C79.3076 24.2989 79.4543 23.6536 79.4543 22.9056Z" fill="white"/>
<path d="M90.2285 29.1976C89.2311 29.1976 88.3365 29.0216 87.5445 28.6696C86.7525 28.3029 86.1218 27.8116 85.6525 27.1956C85.1978 26.5796 84.9485 25.8976 84.9045 25.1496H88.0065C88.0651 25.6189 88.2925 26.0076 88.6885 26.3156C89.0991 26.6236 89.6051 26.7776 90.2065 26.7776C90.7931 26.7776 91.2478 26.6602 91.5705 26.4256C91.9078 26.1909 92.0765 25.8902 92.0765 25.5236C92.0765 25.1276 91.8711 24.8342 91.4605 24.6436C91.0645 24.4382 90.4265 24.2182 89.5465 23.9836C88.6371 23.7636 87.8891 23.5362 87.3025 23.3016C86.7305 23.0669 86.2318 22.7076 85.8065 22.2236C85.3958 21.7396 85.1905 21.0869 85.1905 20.2656C85.1905 19.5909 85.3811 18.9749 85.7625 18.4176C86.1585 17.8602 86.7158 17.4202 87.4345 17.0976C88.1678 16.7749 89.0258 16.6136 90.0085 16.6136C91.4605 16.6136 92.6191 16.9802 93.4845 17.7136C94.3498 18.4322 94.8265 19.4076 94.9145 20.6396H91.9665C91.9225 20.1556 91.7171 19.7742 91.3505 19.4956C90.9985 19.2022 90.5218 19.0556 89.9205 19.0556C89.3631 19.0556 88.9305 19.1582 88.6225 19.3636C88.3291 19.5689 88.1825 19.8549 88.1825 20.2216C88.1825 20.6322 88.3878 20.9476 88.7985 21.1676C89.2091 21.3729 89.8471 21.5856 90.7125 21.8056C91.5925 22.0256 92.3185 22.2529 92.8905 22.4876C93.4625 22.7222 93.9538 23.0889 94.3645 23.5876C94.7898 24.0716 95.0098 24.7169 95.0245 25.5236C95.0245 26.2276 94.8265 26.8582 94.4305 27.4156C94.0491 27.9729 93.4918 28.4129 92.7585 28.7356C92.0398 29.0436 91.1964 29.1976 90.2285 29.1976Z" fill="white"/>
<path d="M108.883 22.6416C108.883 23.0816 108.853 23.4776 108.795 23.8296H99.8847C99.9581 24.7096 100.266 25.3989 100.809 25.8976C101.351 26.3962 102.019 26.6456 102.811 26.6456C103.955 26.6456 104.769 26.1542 105.253 25.1716H108.575C108.223 26.3449 107.548 27.3129 106.551 28.0756C105.553 28.8236 104.329 29.1976 102.877 29.1976C101.703 29.1976 100.647 28.9409 99.7087 28.4276C98.7847 27.8996 98.0587 27.1589 97.5307 26.2056C97.0174 25.2522 96.7607 24.1522 96.7607 22.9056C96.7607 21.6442 97.0174 20.5369 97.5307 19.5836C98.0441 18.6302 98.7627 17.8969 99.6867 17.3836C100.611 16.8702 101.674 16.6136 102.877 16.6136C104.035 16.6136 105.069 16.8629 105.979 17.3616C106.903 17.8602 107.614 18.5716 108.113 19.4956C108.626 20.4049 108.883 21.4536 108.883 22.6416ZM105.693 21.7616C105.678 20.9696 105.392 20.3389 104.835 19.8696C104.277 19.3856 103.595 19.1436 102.789 19.1436C102.026 19.1436 101.381 19.3782 100.853 19.8476C100.339 20.3022 100.024 20.9402 99.9067 21.7616H105.693Z" fill="white"/>
</svg>
