<svg width="25" height="25" viewBox="0 0 25 25" fill="none" xmlns="http://www.w3.org/2000/svg">
<path d="M12.5 4.72266C8.14625 4.72266 4.625 8.24391 4.625 12.5977H6.875C6.875 9.49266 9.395 6.97266 12.5 6.97266C15.605 6.97266 18.125 9.49266 18.125 12.5977H20.375C20.375 8.24391 16.8537 4.72266 12.5 4.72266ZM13.625 15.1739C14.615 14.7352 15.3125 13.7564 15.3125 12.5977C15.3125 11.0452 14.0525 9.78516 12.5 9.78516C10.9475 9.78516 9.6875 11.0452 9.6875 12.5977C9.6875 13.7452 10.385 14.7352 11.375 15.1739V18.8864L7.53875 22.7227L9.125 24.3089L12.5 20.9339L15.875 24.3089L17.4612 22.7227L13.625 18.8864V15.1739ZM12.5 0.222656C5.67125 0.222656 0.125 5.76891 0.125 12.5977H2.375C2.375 7.00641 6.90875 2.47266 12.5 2.47266C18.0912 2.47266 22.625 7.00641 22.625 12.5977H24.875C24.875 5.76891 19.3288 0.222656 12.5 0.222656Z" fill="#002547"/>
</svg>
