<svg width="27" height="27" viewBox="0 0 27 27" fill="none" xmlns="http://www.w3.org/2000/svg">
<path d="M13.4987 8.76497C10.8283 8.76497 8.66537 10.9279 8.66537 13.5983C8.66537 16.2687 10.8283 18.4316 13.4987 18.4316C16.1691 18.4316 18.332 16.2687 18.332 13.5983C18.332 10.9279 16.1691 8.76497 13.4987 8.76497ZM24.3012 12.39C23.7454 7.35122 19.7458 3.35164 14.707 2.79581V0.306641H12.2904V2.79581C7.25161 3.35164 3.25203 7.35122 2.6962 12.39H0.207031V14.8066H2.6962C3.25203 19.8454 7.25161 23.845 12.2904 24.4008V26.89H14.707V24.4008C19.7458 23.845 23.7454 19.8454 24.3012 14.8066H26.7904V12.39H24.3012ZM13.4987 22.0566C8.82245 22.0566 5.04036 18.2746 5.04036 13.5983C5.04036 8.92206 8.82245 5.13997 13.4987 5.13997C18.1749 5.13997 21.957 8.92206 21.957 13.5983C21.957 18.2746 18.1749 22.0566 13.4987 22.0566Z" fill="#002547"/>
</svg>
