<svg width="110" height="42" viewBox="0 0 110 42" fill="none" xmlns="http://www.w3.org/2000/svg">
<path fill-rule="evenodd" clip-rule="evenodd" d="M41.9998 21.0966L42 21C42 9.40202 32.598 0 21 0C10.1757 0 1.26409 8.18954 0.123364 18.7105L11.79 24.4142C12.3617 23.6184 13.2953 23.1 14.35 23.1C15.2427 23.1 16.0487 23.4714 16.6219 24.068L25.9002 16.4134C25.9198 14.6906 27.3225 13.3 29.05 13.3C30.6572 13.3 31.9833 14.5037 32.1759 16.0587L41.9998 21.0966ZM17.4857 25.9482L26.5994 18.4294C27.1769 19.1434 28.0601 19.6 29.05 19.6C30.1912 19.6 31.1907 18.9931 31.7433 18.0845L41.8775 23.2815C40.7404 33.8063 31.8271 42 21 42C9.40202 42 0 32.598 0 21C0 20.9588 0.000118391 20.9177 0.000354851 20.8766L11.2016 26.3528C11.2559 28.0449 12.6447 29.4 14.35 29.4C16.0897 29.4 17.5 27.9897 17.5 26.25C17.5 26.1482 17.4952 26.0475 17.4857 25.9482Z" fill="white"/>
<path d="M65.23 21.124C66.0953 21.2853 66.8067 21.718 67.364 22.422C67.9213 23.126 68.2 23.9327 68.2 24.842C68.2 25.6633 67.9947 26.3893 67.584 27.02C67.188 27.636 66.6087 28.12 65.846 28.472C65.0833 28.824 64.1813 29 63.14 29H56.518V13.644H62.854C63.8953 13.644 64.79 13.8127 65.538 14.15C66.3007 14.4873 66.8727 14.9567 67.254 15.558C67.65 16.1593 67.848 16.8413 67.848 17.604C67.848 18.4987 67.606 19.2467 67.122 19.848C66.6527 20.4493 66.022 20.8747 65.23 21.124ZM59.598 19.98H62.414C63.1473 19.98 63.712 19.8187 64.108 19.496C64.504 19.1587 64.702 18.682 64.702 18.066C64.702 17.45 64.504 16.9733 64.108 16.636C63.712 16.2987 63.1473 16.13 62.414 16.13H59.598V19.98ZM62.7 26.492C63.448 26.492 64.0273 26.316 64.438 25.964C64.8633 25.612 65.076 25.1133 65.076 24.468C65.076 23.808 64.856 23.2947 64.416 22.928C63.976 22.5467 63.382 22.356 62.634 22.356H59.598V26.492H62.7ZM69.8627 22.862C69.8627 21.63 70.1047 20.5373 70.5887 19.584C71.0874 18.6307 71.7547 17.8973 72.5907 17.384C73.4414 16.8707 74.3874 16.614 75.4287 16.614C76.3381 16.614 77.1301 16.7973 77.8047 17.164C78.4941 17.5307 79.0441 17.9927 79.4547 18.55V16.812H82.5567V29H79.4547V27.218C79.0587 27.79 78.5087 28.2667 77.8047 28.648C77.1154 29.0147 76.3161 29.198 75.4067 29.198C74.3801 29.198 73.4414 28.934 72.5907 28.406C71.7547 27.878 71.0874 27.1373 70.5887 26.184C70.1047 25.216 69.8627 24.1087 69.8627 22.862ZM79.4547 22.906C79.4547 22.158 79.3081 21.52 79.0147 20.992C78.7214 20.4493 78.3254 20.0387 77.8267 19.76C77.3281 19.4667 76.7927 19.32 76.2207 19.32C75.6487 19.32 75.1207 19.4593 74.6367 19.738C74.1527 20.0167 73.7567 20.4273 73.4487 20.97C73.1554 21.498 73.0087 22.1287 73.0087 22.862C73.0087 23.5953 73.1554 24.2407 73.4487 24.798C73.7567 25.3407 74.1527 25.7587 74.6367 26.052C75.1354 26.3453 75.6634 26.492 76.2207 26.492C76.7927 26.492 77.3281 26.3527 77.8267 26.074C78.3254 25.7807 78.7214 25.37 79.0147 24.842C79.3081 24.2993 79.4547 23.654 79.4547 22.906ZM90.2289 29.198C89.2315 29.198 88.3369 29.022 87.5449 28.67C86.7529 28.3033 86.1222 27.812 85.6529 27.196C85.1982 26.58 84.9489 25.898 84.9049 25.15H88.0069C88.0655 25.6193 88.2929 26.008 88.6889 26.316C89.0995 26.624 89.6055 26.778 90.2069 26.778C90.7935 26.778 91.2482 26.6607 91.5709 26.426C91.9082 26.1913 92.0769 25.8907 92.0769 25.524C92.0769 25.128 91.8715 24.8347 91.4609 24.644C91.0649 24.4387 90.4269 24.2187 89.5469 23.984C88.6375 23.764 87.8895 23.5367 87.3029 23.302C86.7309 23.0673 86.2322 22.708 85.8069 22.224C85.3962 21.74 85.1909 21.0873 85.1909 20.266C85.1909 19.5913 85.3815 18.9753 85.7629 18.418C86.1589 17.8607 86.7162 17.4207 87.4349 17.098C88.1682 16.7753 89.0262 16.614 90.0089 16.614C91.4609 16.614 92.6195 16.9807 93.4849 17.714C94.3502 18.4327 94.8269 19.408 94.9149 20.64H91.9669C91.9229 20.156 91.7175 19.7747 91.3509 19.496C90.9989 19.2027 90.5222 19.056 89.9209 19.056C89.3635 19.056 88.9309 19.1587 88.6229 19.364C88.3295 19.5693 88.1829 19.8553 88.1829 20.222C88.1829 20.6327 88.3882 20.948 88.7989 21.168C89.2095 21.3733 89.8475 21.586 90.7129 21.806C91.5929 22.026 92.3189 22.2533 92.8909 22.488C93.4629 22.7227 93.9542 23.0893 94.3649 23.588C94.7902 24.072 95.0102 24.7173 95.0249 25.524C95.0249 26.228 94.8269 26.8587 94.4309 27.416C94.0495 27.9733 93.4922 28.4133 92.7589 28.736C92.0402 29.044 91.1969 29.198 90.2289 29.198ZM108.883 22.642C108.883 23.082 108.854 23.478 108.795 23.83H99.8852C99.9585 24.71 100.266 25.3993 100.809 25.898C101.352 26.3967 102.019 26.646 102.811 26.646C103.955 26.646 104.769 26.1547 105.253 25.172H108.575C108.223 26.3453 107.548 27.3133 106.551 28.076C105.554 28.824 104.329 29.198 102.877 29.198C101.704 29.198 100.648 28.9413 99.7092 28.428C98.7852 27.9 98.0592 27.1593 97.5312 26.206C97.0178 25.2527 96.7612 24.1527 96.7612 22.906C96.7612 21.6447 97.0178 20.5373 97.5312 19.584C98.0445 18.6307 98.7632 17.8973 99.6872 17.384C100.611 16.8707 101.674 16.614 102.877 16.614C104.036 16.614 105.07 16.8633 105.979 17.362C106.903 17.8607 107.614 18.572 108.113 19.496C108.626 20.4053 108.883 21.454 108.883 22.642ZM105.693 21.762C105.678 20.97 105.392 20.3393 104.835 19.87C104.278 19.386 103.596 19.144 102.789 19.144C102.026 19.144 101.381 19.3787 100.853 19.848C100.34 20.3027 100.024 20.9407 99.9072 21.762H105.693Z" fill="white"/>
</svg>
